<svg xmlns="http://www.w3.org/2000/svg" version="1.1" xmlns:xlink="http://www.w3.org/1999/xlink" width="200" height="200"><svg xmlns="http://www.w3.org/2000/svg" version="1.1" xmlns:xlink="http://www.w3.org/1999/xlink" width="200" height="200"><svg xmlns="http://www.w3.org/2000/svg" version="1.1" xmlns:xlink="http://www.w3.org/1999/xlink" viewBox="0 0 200 200"><rect width="200" height="200" fill="url('#gradient')"></rect><defs><linearGradient id="gradient" gradientTransform="rotate(45 0.5 0.5)"><stop offset="0%" stop-color="#a4cfc1"></stop><stop offset="100%" stop-color="#658c9e"></stop></linearGradient></defs><g><g fill="#fc8663" transform="matrix(4.726153846153847,0,0,4.726153846153847,5.523953758386455,125.61567600543682)" stroke="#e6b674" stroke-width="0.2"><path d="M0.95-10.57L4.03-10.57L4.14-9.33Q5.26-10.76 7.16-10.76L7.16-10.76Q9.16-10.76 9.86-9.17L9.86-9.17Q10.94-10.76 12.97-10.76L12.97-10.76Q16.18-10.76 16.27-6.88L16.27-6.88L16.27 0L12.97 0L12.97-6.67Q12.97-7.48 12.70-7.85Q12.42-8.22 11.70-8.22L11.70-8.22Q10.72-8.22 10.24-7.35L10.24-7.35L10.25-7.22L10.25 0L6.95 0L6.95-6.65Q6.95-7.48 6.69-7.85Q6.43-8.22 5.68-8.22L5.68-8.22Q4.74-8.22 4.24-7.35L4.24-7.35L4.24 0L0.95 0L0.95-10.57ZM17.73-5.36L17.73-5.36Q17.73-7.87 18.82-9.32Q19.90-10.76 21.85-10.76L21.85-10.76Q23.26-10.76 24.23-9.65L24.23-9.65L24.23-15L27.53-15L27.53 0L24.57 0L24.40-1.13Q23.39 0.20 21.83 0.20L21.83 0.20Q19.94 0.20 18.84-1.25Q17.73-2.70 17.73-5.36ZM21.04-5.76L21.03-5.16Q21.03-2.34 22.67-2.34L22.67-2.34Q23.76-2.34 24.23-3.26L24.23-3.26L24.23-7.29Q23.78-8.22 22.69-8.22L22.69-8.22Q21.16-8.22 21.04-5.76L21.04-5.76ZM29.01-5.24L29.01-5.36Q29.01-6.96 29.54-8.19Q30.07-9.42 31.05-10.09Q32.04-10.76 33.35-10.76L33.35-10.76Q35-10.76 35.93-9.65L35.93-9.65L36.04-10.57L39.03-10.57L39.03-0.40Q39.03 1.00 38.38 2.03Q37.73 3.06 36.50 3.61Q35.27 4.16 33.65 4.16L33.65 4.16Q32.49 4.16 31.40 3.72Q30.31 3.28 29.74 2.58L29.74 2.58L31.11 0.64Q32.03 1.73 33.54 1.73L33.54 1.73Q35.72 1.73 35.72-0.52L35.72-0.52L35.72-0.85Q34.78 0.20 33.33 0.20L33.33 0.20Q31.40 0.20 30.21-1.28Q29.01-2.76 29.01-5.24L29.01-5.24ZM32.31-5.16L32.31-5.16Q32.31-3.86 32.80-3.10Q33.29-2.34 34.17-2.34L34.17-2.34Q35.23-2.34 35.72-3.06L35.72-3.06L35.72-7.50Q35.24-8.22 34.19-8.22L34.19-8.22Q33.31-8.22 32.81-7.44Q32.31-6.65 32.31-5.16Z"></path></g></g></svg></svg><style>@media (prefers-color-scheme: light) { :root { filter: none; } }
@media (prefers-color-scheme: dark) { :root { filter: none; } }
</style></svg>